<svg id="_02" data-name="02" xmlns="http://www.w3.org/2000/svg" width="178" height="154" viewBox="0 0 178 154">
  <metadata><?xpacket begin="﻿" id="W5M0MpCehiHzreSzNTczkc9d"?>
<x:xmpmeta xmlns:x="adobe:ns:meta/" x:xmptk="Adobe XMP Core 5.6-c140 79.160451, 2017/05/06-01:08:21        ">
   <rdf:RDF xmlns:rdf="http://www.w3.org/1999/02/22-rdf-syntax-ns#">
      <rdf:Description rdf:about=""/>
   </rdf:RDF>
</x:xmpmeta>
                                                                                                    
                                                                                                    
                                                                                                    
                                                                                                    
                                                                                                    
                                                                                                    
                                                                                                    
                                                                                                    
                                                                                                    
                                                                                                    
                                                                                                    
                                                                                                    
                                                                                                    
                                                                                                    
                                                                                                    
                                                                                                    
                                                                                                    
                                                                                                    
                                                                                                    
                                                                                                    
                           
<?xpacket end="w"?></metadata>
<defs>
    <style>
      .cls-1, .cls-2 {
        fill: #1db6ad;
        fill-rule: evenodd;
      }

      .cls-1 {
        opacity: 0.1;
      }
    </style>
  </defs>
  <path id="icon-bg" class="cls-1" d="M0,77l44.5-77h89.006l44.5,77-44.5,77H44.5Z"/>
  <path id="icon" class="cls-2" d="M122.75,37H55.25a5,5,0,0,0-5,5V67A7.49,7.49,0,0,0,54,73.488V112a5,5,0,0,0,5,5h60a5,5,0,0,0,5-5V73.488A7.489,7.489,0,0,0,127.75,67V42A5,5,0,0,0,122.75,37Zm-10,2.5V67a5,5,0,0,1-10,0V39.5h10Zm-12.5,0V67a5,5,0,0,1-10,0V39.5h10Zm-12.5,0V67a5,5,0,0,1-10,0V39.5h10Zm-12.5,0V67a5,5,0,1,1-10,0V39.5h10ZM52.75,42a2.5,2.5,0,0,1,2.5-2.5h7.5V67a5,5,0,0,1-10,0V42ZM64,114.5v-30H79V97H77.75a1.25,1.25,0,1,0,0,2.5H79v15H64Zm57.5-2.5a2.5,2.5,0,0,1-2.5,2.5H81.5V83.25A1.28,1.28,0,0,0,80.25,82H62.75A1.25,1.25,0,0,0,61.5,83.25V114.5H59a2.5,2.5,0,0,1-2.5-2.5V74.388A7.425,7.425,0,0,0,64,71.142a7.5,7.5,0,0,0,12.5,0,7.5,7.5,0,0,0,12.5,0,7.495,7.495,0,0,0,12.5,0,7.5,7.5,0,0,0,12.5,0,7.426,7.426,0,0,0,7.5,3.246V112Zm-1.25-40a5,5,0,0,1-5-5V39.5h7.5a2.5,2.5,0,0,1,2.5,2.5V67A5,5,0,0,1,120.25,72Zm-5,10h-30A1.249,1.249,0,0,0,84,83.25v25a1.249,1.249,0,0,0,1.25,1.25h30a1.249,1.249,0,0,0,1.25-1.25v-25A1.249,1.249,0,0,0,115.25,82ZM114,107H86.5V84.5H114V107Zm-4.634-16.616a1.25,1.25,0,1,0,1.768-1.768l-1.25-1.25a1.25,1.25,0,0,0-1.767,1.767Zm0,6.25a1.25,1.25,0,1,0,1.768-1.767l-7.5-7.5a1.25,1.25,0,0,0-1.768,1.767Z"/>
</svg>
