<svg id="_03" data-name="03" xmlns="http://www.w3.org/2000/svg" width="178" height="154" viewBox="0 0 178 154">
  <metadata><?xpacket begin="﻿" id="W5M0MpCehiHzreSzNTczkc9d"?>
<x:xmpmeta xmlns:x="adobe:ns:meta/" x:xmptk="Adobe XMP Core 5.6-c140 79.160451, 2017/05/06-01:08:21        ">
   <rdf:RDF xmlns:rdf="http://www.w3.org/1999/02/22-rdf-syntax-ns#">
      <rdf:Description rdf:about=""/>
   </rdf:RDF>
</x:xmpmeta>
                                                                                                    
                                                                                                    
                                                                                                    
                                                                                                    
                                                                                                    
                                                                                                    
                                                                                                    
                                                                                                    
                                                                                                    
                                                                                                    
                                                                                                    
                                                                                                    
                                                                                                    
                                                                                                    
                                                                                                    
                                                                                                    
                                                                                                    
                                                                                                    
                                                                                                    
                                                                                                    
                           
<?xpacket end="w"?></metadata>
<defs>
    <style>
      .cls-1, .cls-2 {
        fill: #1db6ad;
        fill-rule: evenodd;
      }

      .cls-1 {
        opacity: 0.1;
      }
    </style>
  </defs>
  <path id="icon-bg" class="cls-1" d="M0,77l44.5-77h89.006l44.5,77-44.5,77H44.5Z"/>
  <path id="icon" class="cls-2" d="M124,62H109V42a5,5,0,0,0-5-5H74a5,5,0,0,0-5,5v7.5H54a5,5,0,0,0-5,5V112a5,5,0,0,0,5,5h70a5,5,0,0,0,5-5V67A5,5,0,0,0,124,62ZM69,114.5H54a2.5,2.5,0,0,1-2.5-2.5V54.5A2.5,2.5,0,0,1,54,52H69v62.5Zm23.749,0h-7.5v-10h7.5v10Zm13.75,0v0H95.25V103.25A1.25,1.25,0,0,0,94,102H84a1.249,1.249,0,0,0-1.25,1.25V114.5H71.5l0,0V42A2.5,2.5,0,0,1,74,39.5h30a2.5,2.5,0,0,1,2.5,2.5v72.5Zm20-2.5a2.5,2.5,0,0,1-2.5,2.5H109v-50h15a2.5,2.5,0,0,1,2.5,2.5v45ZM57.75,67h5A1.25,1.25,0,0,0,64,65.75v-5a1.25,1.25,0,0,0-1.25-1.25h-5a1.249,1.249,0,0,0-1.25,1.25v5A1.249,1.249,0,0,0,57.75,67ZM59,62h2.5v2.5H59V62ZM57.75,79.5h5A1.249,1.249,0,0,0,64,78.25v-5A1.25,1.25,0,0,0,62.75,72h-5a1.249,1.249,0,0,0-1.25,1.25v5A1.249,1.249,0,0,0,57.75,79.5Zm1.25-5h2.5V77H59V74.5ZM57.75,92h5A1.25,1.25,0,0,0,64,90.75v-5a1.25,1.25,0,0,0-1.25-1.25h-5a1.249,1.249,0,0,0-1.25,1.25v5A1.249,1.249,0,0,0,57.75,92ZM59,87h2.5v2.5H59V87ZM85.25,59.5h-5A1.25,1.25,0,0,0,79,60.75v5A1.25,1.25,0,0,0,80.25,67h5a1.249,1.249,0,0,0,1.25-1.25v-5A1.249,1.249,0,0,0,85.25,59.5ZM84,64.5H81.5V62H84v2.5ZM85.25,72h-5A1.25,1.25,0,0,0,79,73.25v5a1.249,1.249,0,0,0,1.25,1.25h5a1.249,1.249,0,0,0,1.25-1.25v-5A1.249,1.249,0,0,0,85.25,72ZM84,77H81.5V74.5H84V77Zm1.25,7.5h-5A1.25,1.25,0,0,0,79,85.75v5A1.25,1.25,0,0,0,80.25,92h5a1.249,1.249,0,0,0,1.25-1.25v-5A1.249,1.249,0,0,0,85.25,84.5ZM84,89.5H81.5V87H84v2.5Zm13.75-30h-5a1.249,1.249,0,0,0-1.25,1.25v5A1.249,1.249,0,0,0,92.75,67h5A1.249,1.249,0,0,0,99,65.75v-5A1.249,1.249,0,0,0,97.75,59.5Zm-1.25,5H94V62h2.5v2.5ZM85.25,47h-5A1.249,1.249,0,0,0,79,48.25v5a1.25,1.25,0,0,0,1.25,1.25h5a1.249,1.249,0,0,0,1.25-1.25v-5A1.249,1.249,0,0,0,85.25,47ZM84,52H81.5V49.5H84V52Zm13.75-5h-5a1.249,1.249,0,0,0-1.25,1.25v5a1.249,1.249,0,0,0,1.25,1.25h5A1.249,1.249,0,0,0,99,53.25v-5A1.249,1.249,0,0,0,97.75,47ZM96.5,52H94V49.5h2.5V52Zm1.25,20h-5a1.249,1.249,0,0,0-1.25,1.25v5a1.249,1.249,0,0,0,1.25,1.25h5A1.249,1.249,0,0,0,99,78.25v-5A1.249,1.249,0,0,0,97.75,72ZM96.5,77H94V74.5h2.5V77Zm1.25,7.5h-5a1.249,1.249,0,0,0-1.25,1.25v5A1.249,1.249,0,0,0,92.75,92h5A1.249,1.249,0,0,0,99,90.75v-5A1.249,1.249,0,0,0,97.75,84.5Zm-1.25,5H94V87h2.5v2.5ZM120.25,72h-5A1.249,1.249,0,0,0,114,73.25v5a1.249,1.249,0,0,0,1.25,1.25h5a1.249,1.249,0,0,0,1.25-1.25v-5A1.249,1.249,0,0,0,120.25,72ZM119,77h-2.5V74.5H119V77Zm1.25,7.5h-5A1.249,1.249,0,0,0,114,85.75v5A1.249,1.249,0,0,0,115.25,92h5a1.249,1.249,0,0,0,1.25-1.25v-5A1.249,1.249,0,0,0,120.25,84.5Zm-1.25,5h-2.5V87H119v2.5Zm1.25,7.5h-5A1.249,1.249,0,0,0,114,98.25v5a1.249,1.249,0,0,0,1.25,1.25h5a1.249,1.249,0,0,0,1.25-1.25v-5A1.249,1.249,0,0,0,120.25,97ZM119,102h-2.5V99.5H119V102Zm-61.25,2.5h5A1.25,1.25,0,0,0,64,103.25v-5A1.25,1.25,0,0,0,62.75,97h-5a1.249,1.249,0,0,0-1.25,1.25v5A1.249,1.249,0,0,0,57.75,104.5Zm1.25-5h2.5V102H59V99.5Z"/>
</svg>
