<svg id="_01" data-name="01" xmlns="http://www.w3.org/2000/svg" width="178" height="154" viewBox="0 0 178 154">
  <metadata><?xpacket begin="﻿" id="W5M0MpCehiHzreSzNTczkc9d"?>
<x:xmpmeta xmlns:x="adobe:ns:meta/" x:xmptk="Adobe XMP Core 5.6-c140 79.160451, 2017/05/06-01:08:21        ">
   <rdf:RDF xmlns:rdf="http://www.w3.org/1999/02/22-rdf-syntax-ns#">
      <rdf:Description rdf:about=""/>
   </rdf:RDF>
</x:xmpmeta>
                                                                                                    
                                                                                                    
                                                                                                    
                                                                                                    
                                                                                                    
                                                                                                    
                                                                                                    
                                                                                                    
                                                                                                    
                                                                                                    
                                                                                                    
                                                                                                    
                                                                                                    
                                                                                                    
                                                                                                    
                                                                                                    
                                                                                                    
                                                                                                    
                                                                                                    
                                                                                                    
                           
<?xpacket end="w"?></metadata>
<defs>
    <style>
      .cls-1, .cls-2 {
        fill: #1db6ad;
        fill-rule: evenodd;
      }

      .cls-1 {
        opacity: 0.1;
      }
    </style>
  </defs>
  <path id="icon-bg" class="cls-1" d="M0,77l44.5-77h89.006l44.5,77-44.5,77H44.5Z"/>
  <path id="icon" class="cls-2" d="M127.787,89.857l-18.818-11.29a0.086,0.086,0,0,1,0,.016C108.98,78.055,109,77.534,109,77c0-20.033-9.615-33.581-18.613-39.58a2.5,2.5,0,0,0-2.773,0C78.615,43.419,69,56.967,69,77c0,0.534.019,1.055,0.032,1.582a0.078,0.078,0,0,1,0-.016L50.213,89.857A2.5,2.5,0,0,0,49,92v7.5a2.5,2.5,0,0,0,2.5,2.5H72.986c0.644,2.034,1.13,3.272,1.193,3.428A2.5,2.5,0,0,0,76.5,107h6.249c0,5.982,3.232,10,6.251,10,3,0,6.2-3.957,6.25-9.863,0-.045,0-0.091,0-0.137H101.5a2.5,2.5,0,0,0,2.322-1.572c0.062-.156.548-1.394,1.192-3.428H126.5a2.5,2.5,0,0,0,2.5-2.5V92A2.5,2.5,0,0,0,127.787,89.857ZM89,39.5c7.5,5,17.5,17.5,17.5,37.5a78.432,78.432,0,0,1-1.526,15H73.026A78.433,78.433,0,0,1,71.5,77C71.5,57,81.5,44.5,89,39.5ZM51.5,92L69.147,81.412A85.057,85.057,0,0,0,70.986,94.5H51.5V92Zm0,7.5V97H71.573c0.227,0.91.453,1.746,0.675,2.528a0.267,0.267,0,0,1-.009-0.028H51.5Zm37.5,15c-1.251,0-3.751-2.5-3.751-7.5h7.5C92.75,112,90.25,114.5,89,114.5Zm12.5-10h-25a73.418,73.418,0,0,1-2.947-10h30.893A73.378,73.378,0,0,1,101.5,104.5Zm25-5H105.76a0.15,0.15,0,0,1-.009.028c0.223-.783.449-1.619,0.676-2.528H126.5v2.5Zm0-5H107.014a85.179,85.179,0,0,0,1.84-13.088L126.5,92v2.5ZM89,74.5A7.5,7.5,0,1,0,81.5,67,7.5,7.5,0,0,0,89,74.5ZM89,62a5,5,0,1,1-5,5A5,5,0,0,1,89,62Z"/>
</svg>
