<svg xmlns="http://www.w3.org/2000/svg" width="51" height="52" viewBox="0 0 51 52">
  <metadata><?xpacket begin="﻿" id="W5M0MpCehiHzreSzNTczkc9d"?>
<x:xmpmeta xmlns:x="adobe:ns:meta/" x:xmptk="Adobe XMP Core 5.6-c140 79.160451, 2017/05/06-01:08:21        ">
   <rdf:RDF xmlns:rdf="http://www.w3.org/1999/02/22-rdf-syntax-ns#">
      <rdf:Description rdf:about=""/>
   </rdf:RDF>
</x:xmpmeta>
                                                                                                    
                                                                                                    
                                                                                                    
                                                                                                    
                                                                                                    
                                                                                                    
                                                                                                    
                                                                                                    
                                                                                                    
                                                                                                    
                                                                                                    
                                                                                                    
                                                                                                    
                                                                                                    
                                                                                                    
                                                                                                    
                                                                                                    
                                                                                                    
                                                                                                    
                                                                                                    
                           
<?xpacket end="w"?></metadata>
<defs>
    <style>
      .cls-1 {
        fill: #1db6ad;
        fill-rule: evenodd;
      }
    </style>
  </defs>
  <path id="icon" class="cls-1" d="M19.148,50.237a1.539,1.539,0,0,1-1.537-1.579l0.15-5.727H13.9a5.131,5.131,0,0,1-5.038-5.4v-20.1A5.058,5.058,0,0,1,13.9,12.169H44.771a5.564,5.564,0,0,1,5.624,5.262v20.1a5.627,5.627,0,0,1-5.624,5.4H29.831l-9.788,7.018A1.535,1.535,0,0,1,19.148,50.237ZM13.9,15.245a1.964,1.964,0,0,0-1.962,2.186v20.1A2.09,2.09,0,0,0,13.9,39.855H19.34a1.538,1.538,0,0,1,1.537,1.579l-0.11,4.212,7.675-5.5a1.535,1.535,0,0,1,.9-0.288H44.771a2.587,2.587,0,0,0,2.547-2.323v-20.1a2.469,2.469,0,0,0-2.547-2.186H13.9ZM2.852,30.165a1.192,1.192,0,0,1-.872-0.387A4.8,4.8,0,0,1,.407,26V5.9A5.058,5.058,0,0,1,5.445.634H36.311A5.564,5.564,0,0,1,41.935,5.9v0.89a1.538,1.538,0,0,1-3.077,0V5.9A2.469,2.469,0,0,0,36.311,3.71H5.445A1.964,1.964,0,0,0,3.483,5.9V26a1.764,1.764,0,0,0,.537,1.479,1.535,1.535,0,0,1,.058,2.171A1.692,1.692,0,0,1,2.852,30.165Zm21.1-8H17.8a0.769,0.769,0,1,1,0-1.538h6.152A0.769,0.769,0,0,1,23.954,22.167Zm10.767,0h-7.69a0.769,0.769,0,1,1,0-1.538h7.69A0.769,0.769,0,0,1,34.721,22.167Zm6.152,0H37.8a0.769,0.769,0,1,1,0-1.538h3.076A0.769,0.769,0,0,1,40.873,22.167ZM20.878,26.012H17.8a0.769,0.769,0,1,1,0-1.538h3.076A0.769,0.769,0,0,1,20.878,26.012Zm9.229,0H23.954a0.769,0.769,0,1,1,0-1.538h6.153A0.769,0.769,0,0,1,30.107,26.012Zm10.766,0h-7.69a0.769,0.769,0,1,1,0-1.538h7.69A0.769,0.769,0,0,1,40.873,26.012ZM25.492,30.626H17.8a0.769,0.769,0,1,1,0-1.538h7.69A0.769,0.769,0,0,1,25.492,30.626Zm10.766,0h-7.69a0.769,0.769,0,1,1,0-1.538h7.69A0.769,0.769,0,0,1,36.259,30.626Zm4.614,0H39.335a0.769,0.769,0,1,1,0-1.538h1.538A0.769,0.769,0,0,1,40.873,30.626ZM20.878,34.471H17.8a0.769,0.769,0,1,1,0-1.538h3.076A0.769,0.769,0,1,1,20.878,34.471Zm8.459,0H23.954a0.769,0.769,0,1,1,0-1.538h5.383A0.769,0.769,0,1,1,29.337,34.471Z"/>
</svg>
