<svg xmlns="http://www.w3.org/2000/svg" width="51" height="52" viewBox="0 0 51 52">
  <metadata><?xpacket begin="﻿" id="W5M0MpCehiHzreSzNTczkc9d"?>
<x:xmpmeta xmlns:x="adobe:ns:meta/" x:xmptk="Adobe XMP Core 5.6-c140 79.160451, 2017/05/06-01:08:21        ">
   <rdf:RDF xmlns:rdf="http://www.w3.org/1999/02/22-rdf-syntax-ns#">
      <rdf:Description rdf:about=""/>
   </rdf:RDF>
</x:xmpmeta>
                                                                                                    
                                                                                                    
                                                                                                    
                                                                                                    
                                                                                                    
                                                                                                    
                                                                                                    
                                                                                                    
                                                                                                    
                                                                                                    
                                                                                                    
                                                                                                    
                                                                                                    
                                                                                                    
                                                                                                    
                                                                                                    
                                                                                                    
                                                                                                    
                                                                                                    
                                                                                                    
                           
<?xpacket end="w"?></metadata>
<defs>
    <style>
      .cls-1 {
        fill: #1db6ad;
        fill-rule: evenodd;
      }
    </style>
  </defs>
  <path id="icon" class="cls-1" d="M16.739,51.414A15.389,15.389,0,0,1,5.785,46.877l-0.509-.509a15.511,15.511,0,0,1,0-21.908l10.9-10.9a15.49,15.49,0,0,1,21.907,0l0.509,0.509a15.51,15.51,0,0,1,0,21.908l-10.9,10.9A15.389,15.389,0,0,1,16.739,51.414Zm10.388-39.3a12.318,12.318,0,0,0-8.766,3.631l-10.9,10.9a12.413,12.413,0,0,0,0,17.535L7.971,44.69a12.4,12.4,0,0,0,17.535,0l10.9-10.9a12.414,12.414,0,0,0,0-17.535l-0.509-.509A12.317,12.317,0,0,0,27.126,12.118ZM7.88,40.529A0.772,0.772,0,0,1,7.244,40.2C4.319,35.977,5.134,31.46,9.6,27.133l2.427-2.427A0.773,0.773,0,0,1,13.121,25.8l-2.436,2.436c-3.914,3.79-4.641,7.515-2.17,11.08A0.773,0.773,0,0,1,7.88,40.529Zm1.845,2.259a0.766,0.766,0,0,1-.546-0.227L8.818,42.2a0.773,0.773,0,1,1,1.093-1.093l0.361,0.36A0.773,0.773,0,0,1,9.726,42.788Zm26.012-5.37a0.777,0.777,0,0,1-.35-0.084c-15.117-7.7-20.377-20.1-20.594-20.625a0.774,0.774,0,0,1,1.43-.591A44.062,44.062,0,0,0,36.09,35.955,0.773,0.773,0,0,1,35.737,37.417ZM27.126,25.253a0.773,0.773,0,0,1-.546-1.32L29.314,21.2a0.773,0.773,0,0,1,1.094,1.093l-2.735,2.735A0.77,0.77,0,0,1,27.126,25.253ZM37.963,17.2a1.547,1.547,0,0,1-1.54-1.426c-0.016-.2-0.314-5.025,6.5-8.377a10.365,10.365,0,0,0,4.794-5.9,1.547,1.547,0,1,1,2.977.841c-0.062.222-1.593,5.468-6.406,7.836-4.871,2.4-4.781,5.33-4.779,5.36A1.547,1.547,0,0,1,38.085,17.2C38.044,17.2,38,17.2,37.963,17.2Z"/>
</svg>
