<svg id="Layer_1" data-name="Layer 1" xmlns="http://www.w3.org/2000/svg" viewBox="0 0 32 32"><defs><style>.cls-1{fill:#6f727d;}</style></defs><title>Untitled-1</title><path class="cls-1" d="M29.23,25a16,16,0,0,0,0-18l.2-.2a1,1,0,0,0,0-1.42L26.61,2.57a1,1,0,0,0-1.42,0l-.2.2a16,16,0,0,0-18,0l-.2-.2a1,1,0,0,0-1.42,0L2.57,5.39a1,1,0,0,0,0,1.42l.2.2a16,16,0,0,0,0,18l-.2.2a1,1,0,0,0,0,1.42l2.82,2.83a1,1,0,0,0,1.42,0l.2-.21a16,16,0,0,0,18,0l.2.2a1,1,0,0,0,1.42,0l2.83-2.82a1,1,0,0,0,0-1.42ZM30,16a13.92,13.92,0,0,1-2.22,7.53l-4.42-4.41a7.92,7.92,0,0,0,0-6.24l4.42-4.41A13.92,13.92,0,0,1,30,16Zm-9.76,5.66,1.42-1.42,5.65,5.66L25.9,27.31ZM6.1,27.31,4.69,25.9l5.65-5.66,1.42,1.42-.66.65h0ZM4.69,6.1,6.1,4.69l5.66,5.65-1.41,1.42-.66-.66h0ZM13.88,21l-2.83-2.83a1,1,0,0,0-.76-.28,6,6,0,0,1,0-3.68,1,1,0,0,0,.76-.28l2.83-2.83a1,1,0,0,0,.28-.76,6,6,0,0,1,3.68,0,1,1,0,0,0,.28.76L21,13.88a1,1,0,0,0,.76.28,6,6,0,0,1,0,3.68,1,1,0,0,0-.76.28L18.12,21a1,1,0,0,0-.28.76,6,6,0,0,1-3.68,0A1,1,0,0,0,13.88,21Zm12-16.26L27.31,6.1l-5.65,5.66-1.42-1.41.66-.66h0ZM16,2a13.92,13.92,0,0,1,7.53,2.22L19.12,8.64a7.92,7.92,0,0,0-6.24,0L8.47,4.22A13.92,13.92,0,0,1,16,2ZM2,16A13.92,13.92,0,0,1,4.22,8.47l4.42,4.41a7.93,7.93,0,0,0,0,6.24L4.22,23.53A13.92,13.92,0,0,1,2,16ZM16,30a13.92,13.92,0,0,1-7.53-2.22l4.41-4.42a7.93,7.93,0,0,0,6.24,0l4.41,4.42A13.92,13.92,0,0,1,16,30Z"/></svg>