<svg id="Layer_1" data-name="Layer 1" xmlns="http://www.w3.org/2000/svg" viewBox="0 0 28 32"><defs><style>.cls-1{fill:#6f727d;}</style></defs><title>Untitled-1</title><path class="cls-1" d="M21,16H7a1,1,0,0,0,0,2H21a1,1,0,0,0,0-2Z"/><path class="cls-1" d="M21,20H7a1,1,0,0,0,0,2H21a1,1,0,0,0,0-2Z"/><path class="cls-1" d="M21,24H7a1,1,0,0,0,0,2H21a1,1,0,0,0,0-2Z"/><path class="cls-1" d="M7,14h6a1,1,0,0,0,0-2H7a1,1,0,0,0,0,2Z"/><path class="cls-1" d="M27.71,8.29l-8-8A1,1,0,0,0,19,0H2A2,2,0,0,0,0,2V30a2,2,0,0,0,2,2H26a2,2,0,0,0,2-2V9A1,1,0,0,0,27.71,8.29ZM20,3.41,24.59,8H20ZM25,30H3a1,1,0,0,1-1-1V3A1,1,0,0,1,3,2H18V9a1,1,0,0,0,1,1h7V29A1,1,0,0,1,25,30Z"/></svg>