<svg id="Layer_1" data-name="Layer 1" xmlns="http://www.w3.org/2000/svg" viewBox="0 0 32 32"><defs><style>.cls-1{fill:#6f727d;}</style></defs><title>Untitled-1</title><path class="cls-1" d="M30,26H27V12h3a2,2,0,0,0,1-3.74l-14-8a2,2,0,0,0-2,0l-14,8A2,2,0,0,0,2,12H5V26H2a2,2,0,0,0-2,2v4H32V28A2,2,0,0,0,30,26ZM3,10c-.61,0-.28-.41,0-.56L15.46,2.31a1,1,0,0,1,1,0L29,9.43c.34.19.66.57,0,.57Zm22,2V26H23V12Zm-4,0V26H19V12Zm-4,0V26H15V12Zm-4,0V26H11V12ZM9,12V26H7V12ZM30,30H2V29a1,1,0,0,1,1-1H29a1,1,0,0,1,1,1Z"/></svg>