<svg id="Layer_1" data-name="Layer 1" xmlns="http://www.w3.org/2000/svg" viewBox="0 0 24 32"><defs><style>.cls-1{fill:#6f727d;}</style></defs><title>Untitled-1</title><path class="cls-1" d="M22,12H20V8A8,8,0,0,0,4,8v4H2a2,2,0,0,0-2,2V30a2,2,0,0,0,2,2H22a2,2,0,0,0,2-2V14A2,2,0,0,0,22,12ZM6,8A6,6,0,0,1,18,8v4H16V8A4,4,0,0,0,8,8v4H6Zm4,0a2,2,0,0,1,4,0v4H10ZM22,29a1,1,0,0,1-1,1H3a1,1,0,0,1-1-1V15a1,1,0,0,1,1-1H21a1,1,0,0,1,1,1Z"/><path class="cls-1" d="M12,18a3,3,0,0,0-1,5.83A.53.53,0,0,0,11,24v1a1,1,0,0,0,2,0V24a.53.53,0,0,0,0-.17A3,3,0,0,0,12,18Zm0,4a1,1,0,1,1,1-1A1,1,0,0,1,12,22Z"/></svg>