<svg id="Layer_1" data-name="Layer 1" xmlns="http://www.w3.org/2000/svg" viewBox="0 0 32 32"><defs><style>.cls-1{fill:#6f727d;}</style></defs><title>Untitled-1</title><path class="cls-1" d="M30,23.75a28,28,0,0,0-28,0s-2,1-2,2.75V30a2,2,0,0,0,2,2H30a2,2,0,0,0,2-2V26.5C32,24.66,30,23.75,30,23.75ZM16,22a25.63,25.63,0,0,1,6,.71,9,9,0,0,1-12,0A25.63,25.63,0,0,1,16,22Zm14,7a1,1,0,0,1-1,1H3a1,1,0,0,1-1-1V27a1.32,1.32,0,0,1,.75-1.37,26.08,26.08,0,0,1,5.07-2.3,10.94,10.94,0,0,0,16.35,0,25.22,25.22,0,0,1,5.12,2.33c.24.14.71.34.71,1.34Z"/><path class="cls-1" d="M16,18a7,7,0,0,0,7-7V6a6,6,0,0,0-6-6H15A6,6,0,0,0,9,6v5A7,7,0,0,0,16,18ZM15,2h2a4,4,0,0,1,4,4H11A4,4,0,0,1,15,2ZM11,8H21v3a5,5,0,0,1-10,0Z"/></svg>