<svg xmlns="http://www.w3.org/2000/svg" width="20" height="20" viewBox="0 0 20 20">
  <metadata><?xpacket begin="﻿" id="W5M0MpCehiHzreSzNTczkc9d"?>
<x:xmpmeta xmlns:x="adobe:ns:meta/" x:xmptk="Adobe XMP Core 5.6-c140 79.160451, 2017/05/06-01:08:21        ">
   <rdf:RDF xmlns:rdf="http://www.w3.org/1999/02/22-rdf-syntax-ns#">
      <rdf:Description rdf:about=""/>
   </rdf:RDF>
</x:xmpmeta>
                                                                                                    
                                                                                                    
                                                                                                    
                                                                                                    
                                                                                                    
                                                                                                    
                                                                                                    
                                                                                                    
                                                                                                    
                                                                                                    
                                                                                                    
                                                                                                    
                                                                                                    
                                                                                                    
                                                                                                    
                                                                                                    
                                                                                                    
                                                                                                    
                                                                                                    
                                                                                                    
                           
<?xpacket end="w"?></metadata>
<defs>
    <style>
      .cls-1 {
        fill: #868aa8;
        fill-rule: evenodd;
      }
    </style>
  </defs>
  <path id="_08" data-name="08" class="cls-1" d="M18.75,15l-3.17-1.812c0.027-.6.045-1.244,0.045-1.938C15.625,5,12.5,1.25,10,0,7.5,1.25,4.375,5,4.375,11.25c0,0.695.018,1.335,0.045,1.938L1.25,15C0.534,15.435,0,15.769,0,16.564V18.75A1.249,1.249,0,0,0,1.25,20h17.5A1.249,1.249,0,0,0,20,18.75V16.563C20,15.729,19.475,15.435,18.75,15ZM1.25,18.75V16.564c0-.025,0-0.04,0-0.042a3.38,3.38,0,0,1,.634-0.445l2.624-1.5a23.138,23.138,0,0,0,.686,4.172H1.25Zm12.253,0H6.495a26.142,26.142,0,0,1-.87-7.5C5.625,5.78,8.16,2.668,10,1.445c1.84,1.224,4.375,4.335,4.375,9.805A26.207,26.207,0,0,1,13.5,18.75Zm5.247,0H14.805a23.132,23.132,0,0,0,.686-4.172l2.616,1.495,0.05,0.03a4.27,4.27,0,0,1,.587.384,0.326,0.326,0,0,1,.006.076V18.75ZM8.125,8.125A1.875,1.875,0,1,0,10,6.25,1.875,1.875,0,0,0,8.125,8.125Zm2.5,0A0.625,0.625,0,1,1,10,7.5,0.625,0.625,0,0,1,10.625,8.125Z"/>
</svg>
