<svg xmlns="http://www.w3.org/2000/svg" width="20" height="20" viewBox="0 0 20 20">
  <metadata><?xpacket begin="﻿" id="W5M0MpCehiHzreSzNTczkc9d"?>
<x:xmpmeta xmlns:x="adobe:ns:meta/" x:xmptk="Adobe XMP Core 5.6-c140 79.160451, 2017/05/06-01:08:21        ">
   <rdf:RDF xmlns:rdf="http://www.w3.org/1999/02/22-rdf-syntax-ns#">
      <rdf:Description rdf:about=""/>
   </rdf:RDF>
</x:xmpmeta>
                                                                                                    
                                                                                                    
                                                                                                    
                                                                                                    
                                                                                                    
                                                                                                    
                                                                                                    
                                                                                                    
                                                                                                    
                                                                                                    
                                                                                                    
                                                                                                    
                                                                                                    
                                                                                                    
                                                                                                    
                                                                                                    
                                                                                                    
                                                                                                    
                                                                                                    
                                                                                                    
                           
<?xpacket end="w"?></metadata>
<defs>
    <style>
      .cls-1 {
        fill: #868aa8;
        fill-rule: evenodd;
      }
    </style>
  </defs>
  <path id="_04" data-name="04" class="cls-1" d="M18.75,14.847a17.486,17.486,0,0,0-17.5,0A2.229,2.229,0,0,0,0,16.563V18.75A1.249,1.249,0,0,0,1.25,20h17.5A1.249,1.249,0,0,0,20,18.75V16.563A2.13,2.13,0,0,0,18.75,14.847ZM10,13.75a16.208,16.208,0,0,1,3.736.443,5.588,5.588,0,0,1-7.472,0A16.246,16.246,0,0,1,10,13.75Zm8.75,4.375a0.625,0.625,0,0,1-.625.625H1.875a0.625,0.625,0,0,1-.625-0.625v-1.25a0.821,0.821,0,0,1,.471-0.856,16.19,16.19,0,0,1,3.165-1.438,6.837,6.837,0,0,0,10.22,0,16.261,16.261,0,0,1,3.2,1.456,0.792,0.792,0,0,1,.445.84v1.25ZM10,11.25a4.375,4.375,0,0,0,4.375-4.375V3.75A3.75,3.75,0,0,0,10.625,0H9.375a3.75,3.75,0,0,0-3.75,3.75V6.875A4.375,4.375,0,0,0,10,11.25Zm-0.625-10h1.25a2.5,2.5,0,0,1,2.5,2.5H6.875A2.5,2.5,0,0,1,9.375,1.25ZM6.875,5h6.25V6.875a3.125,3.125,0,0,1-6.25,0V5Z"/>
</svg>
