<svg xmlns="http://www.w3.org/2000/svg" width="20" height="20" viewBox="0 0 20 20">
  <metadata><?xpacket begin="﻿" id="W5M0MpCehiHzreSzNTczkc9d"?>
<x:xmpmeta xmlns:x="adobe:ns:meta/" x:xmptk="Adobe XMP Core 5.6-c140 79.160451, 2017/05/06-01:08:21        ">
   <rdf:RDF xmlns:rdf="http://www.w3.org/1999/02/22-rdf-syntax-ns#">
      <rdf:Description rdf:about=""/>
   </rdf:RDF>
</x:xmpmeta>
                                                                                                    
                                                                                                    
                                                                                                    
                                                                                                    
                                                                                                    
                                                                                                    
                                                                                                    
                                                                                                    
                                                                                                    
                                                                                                    
                                                                                                    
                                                                                                    
                                                                                                    
                                                                                                    
                                                                                                    
                                                                                                    
                                                                                                    
                                                                                                    
                                                                                                    
                                                                                                    
                           
<?xpacket end="w"?></metadata>
<defs>
    <style>
      .cls-1 {
        fill: #868aa8;
        fill-rule: evenodd;
      }
    </style>
  </defs>
  <path id="_01" data-name="01" class="cls-1" d="M18.75,1.208H10.625V0.586a0.625,0.625,0,0,0-1.25,0V1.208H1.25A1.247,1.247,0,0,0,0,2.453V14.9a1.247,1.247,0,0,0,1.25,1.245H7.958l-1.624,2.8a0.624,0.624,0,0,0,1.083.622L9.4,16.145h1.2l1.985,3.423a0.624,0.624,0,0,0,1.083-.622l-1.624-2.8H18.75A1.247,1.247,0,0,0,20,14.9V2.453A1.247,1.247,0,0,0,18.75,1.208Zm0,13.07a0.623,0.623,0,0,1-.625.622H1.875a0.623,0.623,0,0,1-.625-0.622V3.075a0.623,0.623,0,0,1,.625-0.622h16.25a0.623,0.623,0,0,1,.625.622v11.2Zm-7.5-8.091H8.75a0.623,0.623,0,0,0-.625.622v6.846h3.75V6.81A0.623,0.623,0,0,0,11.25,6.187Zm-0.625,6.224H9.375V7.432h1.25v4.979ZM16.25,3.7h-2.5a0.623,0.623,0,0,0-.625.622v9.336h3.75V4.32A0.623,0.623,0,0,0,16.25,3.7Zm-0.625,8.713h-1.25V4.942h1.25v7.469ZM6.25,8.677H3.75a0.623,0.623,0,0,0-.625.622v4.357h3.75V9.3A0.623,0.623,0,0,0,6.25,8.677ZM5.625,12.411H4.375V9.921h1.25v2.49Z"/>
</svg>
