<svg xmlns="http://www.w3.org/2000/svg" width="20" height="20" viewBox="0 0 20 20">
  <metadata><?xpacket begin="﻿" id="W5M0MpCehiHzreSzNTczkc9d"?>
<x:xmpmeta xmlns:x="adobe:ns:meta/" x:xmptk="Adobe XMP Core 5.6-c140 79.160451, 2017/05/06-01:08:21        ">
   <rdf:RDF xmlns:rdf="http://www.w3.org/1999/02/22-rdf-syntax-ns#">
      <rdf:Description rdf:about=""/>
   </rdf:RDF>
</x:xmpmeta>
                                                                                                    
                                                                                                    
                                                                                                    
                                                                                                    
                                                                                                    
                                                                                                    
                                                                                                    
                                                                                                    
                                                                                                    
                                                                                                    
                                                                                                    
                                                                                                    
                                                                                                    
                                                                                                    
                                                                                                    
                                                                                                    
                                                                                                    
                                                                                                    
                                                                                                    
                                                                                                    
                           
<?xpacket end="w"?></metadata>
<defs>
    <style>
      .cls-1 {
        fill: #868aa8;
        fill-rule: evenodd;
      }
    </style>
  </defs>
  <path id="_10" data-name="10" class="cls-1" d="M18.75,3.75H14.028a2.472,2.472,0,0,0,.347-1.25A2.49,2.49,0,0,0,10,.862,2.488,2.488,0,0,0,5.972,3.75H1.25A1.249,1.249,0,0,0,0,5V8.75A1.249,1.249,0,0,0,1.25,10v8.75A1.249,1.249,0,0,0,2.5,20h15a1.249,1.249,0,0,0,1.25-1.25V10A1.249,1.249,0,0,0,20,8.75V5A1.249,1.249,0,0,0,18.75,3.75Zm-10.625,15h-5A0.625,0.625,0,0,1,2.5,18.125V10H8.125v8.75Zm0-10H1.875A0.625,0.625,0,0,1,1.25,8.125v-2.5A0.625,0.625,0,0,1,1.875,5h6.25V8.75ZM6.875,2.5a1.25,1.25,0,0,1,2.5,0V3.75H8.125A1.25,1.25,0,0,1,6.875,2.5Zm3.75,16.25H9.375V10h1.25v8.75Zm0-10H9.375V5h1.25V8.75Zm0-6.25a1.25,1.25,0,1,1,1.25,1.25h-1.25V2.5ZM17.5,18.125a0.625,0.625,0,0,1-.625.625h-5V10H17.5v8.125Zm1.25-10a0.625,0.625,0,0,1-.625.625h-6.25V5h6.25a0.625,0.625,0,0,1,.625.625v2.5Z"/>
</svg>
