<svg xmlns="http://www.w3.org/2000/svg" width="20" height="20" viewBox="0 0 20 20">
  <metadata><?xpacket begin="﻿" id="W5M0MpCehiHzreSzNTczkc9d"?>
<x:xmpmeta xmlns:x="adobe:ns:meta/" x:xmptk="Adobe XMP Core 5.6-c140 79.160451, 2017/05/06-01:08:21        ">
   <rdf:RDF xmlns:rdf="http://www.w3.org/1999/02/22-rdf-syntax-ns#">
      <rdf:Description rdf:about=""/>
   </rdf:RDF>
</x:xmpmeta>
                                                                                                    
                                                                                                    
                                                                                                    
                                                                                                    
                                                                                                    
                                                                                                    
                                                                                                    
                                                                                                    
                                                                                                    
                                                                                                    
                                                                                                    
                                                                                                    
                                                                                                    
                                                                                                    
                                                                                                    
                                                                                                    
                                                                                                    
                                                                                                    
                                                                                                    
                                                                                                    
                           
<?xpacket end="w"?></metadata>
<defs>
    <style>
      .cls-1 {
        fill: #868aa8;
        fill-rule: evenodd;
      }
    </style>
  </defs>
  <path id="_06" data-name="06" class="cls-1" d="M17.714,0H2.286A1.267,1.267,0,0,0,1,1.25v17.5A1.268,1.268,0,0,0,2.286,20H17.714A1.267,1.267,0,0,0,19,18.75V1.25A1.267,1.267,0,0,0,17.714,0Zm0,18.125a0.634,0.634,0,0,1-.643.625H2.929a0.634,0.634,0,0,1-.643-0.625V1.875A0.634,0.634,0,0,1,2.929,1.25H17.071a0.634,0.634,0,0,1,.643.625v16.25ZM14.5,9.375h-9a0.625,0.625,0,1,0,0,1.25h9A0.625,0.625,0,1,0,14.5,9.375Zm0,2.5h-9a0.625,0.625,0,1,0,0,1.25h9A0.625,0.625,0,1,0,14.5,11.875Zm0,2.5h-9a0.625,0.625,0,1,0,0,1.25h9A0.625,0.625,0,1,0,14.5,14.375Zm0-7.5h-9a0.625,0.625,0,1,0,0,1.25h9A0.625,0.625,0,1,0,14.5,6.875Zm-9-1.25H9.357a0.625,0.625,0,1,0,0-1.25H5.5A0.625,0.625,0,1,0,5.5,5.625Z"/>
</svg>
