<svg xmlns="http://www.w3.org/2000/svg" width="20" height="20" viewBox="0 0 20 20">
  <metadata><?xpacket begin="﻿" id="W5M0MpCehiHzreSzNTczkc9d"?>
<x:xmpmeta xmlns:x="adobe:ns:meta/" x:xmptk="Adobe XMP Core 5.6-c140 79.160451, 2017/05/06-01:08:21        ">
   <rdf:RDF xmlns:rdf="http://www.w3.org/1999/02/22-rdf-syntax-ns#">
      <rdf:Description rdf:about=""/>
   </rdf:RDF>
</x:xmpmeta>
                                                                                                    
                                                                                                    
                                                                                                    
                                                                                                    
                                                                                                    
                                                                                                    
                                                                                                    
                                                                                                    
                                                                                                    
                                                                                                    
                                                                                                    
                                                                                                    
                                                                                                    
                                                                                                    
                                                                                                    
                                                                                                    
                                                                                                    
                                                                                                    
                                                                                                    
                                                                                                    
                           
<?xpacket end="w"?></metadata>
<defs>
    <style>
      .cls-1 {
        fill: #868aa8;
        fill-rule: evenodd;
      }
    </style>
  </defs>
  <path id="_05" data-name="05" class="cls-1" d="M18.75,0H1.25A1.249,1.249,0,0,0,0,1.25v17.5A1.249,1.249,0,0,0,1.25,20h17.5A1.249,1.249,0,0,0,20,18.75V1.25A1.249,1.249,0,0,0,18.75,0Zm0,18.125a0.625,0.625,0,0,1-.625.625H1.875a0.625,0.625,0,0,1-.625-0.625V1.875A0.625,0.625,0,0,1,1.875,1.25h16.25a0.625,0.625,0,0,1,.625.625v16.25ZM13.125,10a3.126,3.126,0,0,0-3.062,2.5H4.375a0.625,0.625,0,0,0,0,1.25h5.688A3.125,3.125,0,1,0,13.125,10Zm0,5A1.875,1.875,0,1,1,15,13.125,1.875,1.875,0,0,1,13.125,15Zm2.5-8.75H9.937a3.125,3.125,0,1,0,0,1.25h5.688A0.625,0.625,0,1,0,15.625,6.25Zm-8.75,2.5A1.875,1.875,0,1,1,8.75,6.875,1.875,1.875,0,0,1,6.875,8.75Z"/>
</svg>
