<svg xmlns="http://www.w3.org/2000/svg" width="20" height="20" viewBox="0 0 20 20">
  <metadata><?xpacket begin="﻿" id="W5M0MpCehiHzreSzNTczkc9d"?>
<x:xmpmeta xmlns:x="adobe:ns:meta/" x:xmptk="Adobe XMP Core 5.6-c140 79.160451, 2017/05/06-01:08:21        ">
   <rdf:RDF xmlns:rdf="http://www.w3.org/1999/02/22-rdf-syntax-ns#">
      <rdf:Description rdf:about=""/>
   </rdf:RDF>
</x:xmpmeta>
                                                                                                    
                                                                                                    
                                                                                                    
                                                                                                    
                                                                                                    
                                                                                                    
                                                                                                    
                                                                                                    
                                                                                                    
                                                                                                    
                                                                                                    
                                                                                                    
                                                                                                    
                                                                                                    
                                                                                                    
                                                                                                    
                                                                                                    
                                                                                                    
                                                                                                    
                                                                                                    
                           
<?xpacket end="w"?></metadata>
<defs>
    <style>
      .cls-1 {
        fill: #868aa8;
        fill-rule: evenodd;
      }
    </style>
  </defs>
  <path id="_09" data-name="09" class="cls-1" d="M18.972,5H4.831a0.41,0.41,0,0,1-.348-0.33L3.833,1.094A1.186,1.186,0,0,0,2.488,0H0.614a0.625,0.625,0,0,0,0,1.25H2.342a0.372,0.372,0,0,1,.314.358L4.89,13.9,5.584,16.76A1.869,1.869,0,1,0,8.62,18.75H12.6a1.875,1.875,0,1,0,0-1.25H8.62a1.871,1.871,0,0,0-1.759-1.25c-0.019,0-.037,0-0.056.006L6.481,15H16.856a1.251,1.251,0,0,0,1.368-1.113L19.9,6.543C20.09,5.693,19.979,5,18.972,5ZM14.357,17.5a0.625,0.625,0,1,1-.625.625A0.625,0.625,0,0,1,14.357,17.5Zm-6.872.625A0.625,0.625,0,1,1,6.861,17.5,0.625,0.625,0,0,1,7.486,18.125ZM18.575,6.555l-1.528,6.879a0.366,0.366,0,0,1-.386.316H6.4A0.306,0.306,0,0,1,6.1,13.51l-0.024-.091L4.834,6.605s-0.14-.355.3-0.355H18.281C18.672,6.25,18.575,6.555,18.575,6.555ZM8.735,7.5a0.625,0.625,0,0,0-.625.625v3.75a0.625,0.625,0,1,0,1.249,0V8.125A0.625,0.625,0,0,0,8.735,7.5Zm3.123,0a0.625,0.625,0,0,0-.625.625v3.75a0.625,0.625,0,1,0,1.249,0V8.125A0.625,0.625,0,0,0,11.858,7.5Zm3.124,0a0.625,0.625,0,0,0-.625.625v3.75a0.625,0.625,0,1,0,1.249,0V8.125A0.625,0.625,0,0,0,14.982,7.5Z"/>
</svg>
