<svg xmlns="http://www.w3.org/2000/svg" width="20" height="20" viewBox="0 0 20 20">
  <metadata><?xpacket begin="﻿" id="W5M0MpCehiHzreSzNTczkc9d"?>
<x:xmpmeta xmlns:x="adobe:ns:meta/" x:xmptk="Adobe XMP Core 5.6-c140 79.160451, 2017/05/06-01:08:21        ">
   <rdf:RDF xmlns:rdf="http://www.w3.org/1999/02/22-rdf-syntax-ns#">
      <rdf:Description rdf:about=""/>
   </rdf:RDF>
</x:xmpmeta>
                                                                                                    
                                                                                                    
                                                                                                    
                                                                                                    
                                                                                                    
                                                                                                    
                                                                                                    
                                                                                                    
                                                                                                    
                                                                                                    
                                                                                                    
                                                                                                    
                                                                                                    
                                                                                                    
                                                                                                    
                                                                                                    
                                                                                                    
                                                                                                    
                                                                                                    
                                                                                                    
                           
<?xpacket end="w"?></metadata>
<defs>
    <style>
      .cls-1 {
        fill: #868aa8;
        fill-rule: evenodd;
      }
    </style>
  </defs>
  <path id="_02" data-name="02" class="cls-1" d="M18.75,0H1.25A1.249,1.249,0,0,0,0,1.25V9.374A0.625,0.625,0,0,0,.625,10H1.25V18.75A1.249,1.249,0,0,0,2.5,20h15a1.249,1.249,0,0,0,1.25-1.25V10h0.625A0.625,0.625,0,0,0,20,9.374V1.25A1.249,1.249,0,0,0,18.75,0ZM15,1.25v7.5H12.5V1.25H15Zm-3.75,0v7.5H8.75V1.25h2.5Zm-3.75,0v7.5H5V1.25H7.5Zm-5.625,0H3.75v7.5H1.25V1.875A0.625,0.625,0,0,1,1.875,1.25ZM5,18.75V12.5H7.5V18.75H5Zm12.5-.625a0.625,0.625,0,0,1-.625.625H8.75V11.874a0.625,0.625,0,0,0-.625-0.625H4.375a0.625,0.625,0,0,0-.625.625V18.75H3.125A0.625,0.625,0,0,1,2.5,18.125V10h15v8.127ZM16.25,8.749V1.25h1.875a0.625,0.625,0,0,1,.625.625V8.749h-2.5ZM10.625,17.5h5a0.625,0.625,0,0,0,.625-0.625v-5a0.625,0.625,0,0,0-.625-0.625h-5a0.625,0.625,0,0,0-.625.625v5A0.625,0.625,0,0,0,10.625,17.5Zm0.625-5H15V16.25H11.25V12.5Z"/>
</svg>
