<svg xmlns="http://www.w3.org/2000/svg" width="20" height="20" viewBox="0 0 20 20">
  <metadata><?xpacket begin="﻿" id="W5M0MpCehiHzreSzNTczkc9d"?>
<x:xmpmeta xmlns:x="adobe:ns:meta/" x:xmptk="Adobe XMP Core 5.6-c140 79.160451, 2017/05/06-01:08:21        ">
   <rdf:RDF xmlns:rdf="http://www.w3.org/1999/02/22-rdf-syntax-ns#">
      <rdf:Description rdf:about=""/>
   </rdf:RDF>
</x:xmpmeta>
                                                                                                    
                                                                                                    
                                                                                                    
                                                                                                    
                                                                                                    
                                                                                                    
                                                                                                    
                                                                                                    
                                                                                                    
                                                                                                    
                                                                                                    
                                                                                                    
                                                                                                    
                                                                                                    
                                                                                                    
                                                                                                    
                                                                                                    
                                                                                                    
                                                                                                    
                                                                                                    
                           
<?xpacket end="w"?></metadata>
<defs>
    <style>
      .cls-1 {
        fill: #868aa8;
        fill-rule: evenodd;
      }
    </style>
  </defs>
  <path id="_07" data-name="07" class="cls-1" d="M18.75,0H5A1.249,1.249,0,0,0,3.75,1.25v2.5H1.25A1.249,1.249,0,0,0,0,5v8.75A1.249,1.249,0,0,0,1.25,15h2.5v3.75a1.25,1.25,0,0,0,2.134.884L10.518,15H15a1.249,1.249,0,0,0,1.25-1.25v-2.5h2.5A1.249,1.249,0,0,0,20,10V1.25A1.249,1.249,0,0,0,18.75,0ZM15,13.125a0.625,0.625,0,0,1-.625.625H10.518a1.374,1.374,0,0,0-.884.366L5,18.75V14.375a0.625,0.625,0,0,0-.625-0.625h-2.5a0.625,0.625,0,0,1-.625-0.625v-7.5A0.625,0.625,0,0,1,1.875,5h12.5A0.625,0.625,0,0,1,15,5.625v7.5Zm3.75-3.75a0.625,0.625,0,0,1-.625.625H16.25V5A1.249,1.249,0,0,0,15,3.75H5V1.875A0.625,0.625,0,0,1,5.625,1.25h12.5a0.625,0.625,0,0,1,.625.625v7.5ZM4.375,8.75H7.5a0.625,0.625,0,1,0,0-1.25H4.375A0.625,0.625,0,1,0,4.375,8.75Zm7.5,1.25h-7.5a0.625,0.625,0,0,0,0,1.25h7.5A0.625,0.625,0,0,0,11.875,10Z"/>
</svg>
