<svg xmlns="http://www.w3.org/2000/svg" width="20" height="20" viewBox="0 0 20 20">
  <metadata><?xpacket begin="﻿" id="W5M0MpCehiHzreSzNTczkc9d"?>
<x:xmpmeta xmlns:x="adobe:ns:meta/" x:xmptk="Adobe XMP Core 5.6-c140 79.160451, 2017/05/06-01:08:21        ">
   <rdf:RDF xmlns:rdf="http://www.w3.org/1999/02/22-rdf-syntax-ns#">
      <rdf:Description rdf:about=""/>
   </rdf:RDF>
</x:xmpmeta>
                                                                                                    
                                                                                                    
                                                                                                    
                                                                                                    
                                                                                                    
                                                                                                    
                                                                                                    
                                                                                                    
                                                                                                    
                                                                                                    
                                                                                                    
                                                                                                    
                                                                                                    
                                                                                                    
                                                                                                    
                                                                                                    
                                                                                                    
                                                                                                    
                                                                                                    
                                                                                                    
                           
<?xpacket end="w"?></metadata>
<defs>
    <style>
      .cls-1 {
        fill: #868aa8;
        fill-rule: evenodd;
      }
    </style>
  </defs>
  <path id="_03" data-name="03" class="cls-1" d="M19.375,8.75H18.75V2.5A2.5,2.5,0,0,0,16.25,0H2.5A2.5,2.5,0,0,0,0,2.5V18.75A1.249,1.249,0,0,0,1.25,20H17.5a1.249,1.249,0,0,0,1.25-1.25v-5h0.625A0.625,0.625,0,0,0,20,13.125V9.375A0.625,0.625,0,0,0,19.375,8.75ZM2.5,1.251H16.25A1.252,1.252,0,0,1,17.5,2.5H1.25A1.25,1.25,0,0,1,2.5,1.251Zm15,16.874a0.625,0.625,0,0,1-.625.625h-15a0.625,0.625,0,0,1-.625-0.625V4.375A0.625,0.625,0,0,1,1.875,3.75h15a0.625,0.625,0,0,1,.625.625V8.75h-5a0.625,0.625,0,0,0-.625.625v3.75a0.625,0.625,0,0,0,.625.625h5v4.375ZM18.75,12.5H13.125V10H18.75v2.5Zm-4.375-.625a0.625,0.625,0,1,0-.625-0.625A0.625,0.625,0,0,0,14.375,11.875Z"/>
</svg>
