<svg xmlns="http://www.w3.org/2000/svg" width="112" height="22" viewBox="0 0 112 22">
  <metadata><?xpacket begin="﻿" id="W5M0MpCehiHzreSzNTczkc9d"?>
<x:xmpmeta xmlns:x="adobe:ns:meta/" x:xmptk="Adobe XMP Core 5.6-c140 79.160451, 2017/05/06-01:08:21        ">
   <rdf:RDF xmlns:rdf="http://www.w3.org/1999/02/22-rdf-syntax-ns#">
      <rdf:Description rdf:about=""/>
   </rdf:RDF>
</x:xmpmeta>
                                                                                                    
                                                                                                    
                                                                                                    
                                                                                                    
                                                                                                    
                                                                                                    
                                                                                                    
                                                                                                    
                                                                                                    
                                                                                                    
                                                                                                    
                                                                                                    
                                                                                                    
                                                                                                    
                                                                                                    
                                                                                                    
                                                                                                    
                                                                                                    
                                                                                                    
                                                                                                    
                           
<?xpacket end="w"?></metadata>
<defs>
    <style>
      .cls-1 {
        fill: #fff;
        fill-rule: evenodd;
      }
    </style>
  </defs>
  <path id="logo" class="cls-1" d="M6.691,20.136l4.446-8.014L7.774,6.062C7.752,6.021,7.73,5.98,7.709,5.939L7.675,5.872h0L7.647,5.814h0Q7.6,5.719,7.561,5.624L7.555,5.612h0Q7.521,5.53,7.489,5.447h0L7.477,5.416h0c-0.054-.145-0.1-0.292-0.139-0.439L7.329,4.945h0q-0.05-.192-0.083-0.386h0C7.24,4.528,7.236,4.5,7.231,4.467h0C7.226,4.431,7.221,4.4,7.216,4.36l-0.01-.082L0.479,16.4a3.828,3.828,0,0,0,1.313,5.1h0a3.45,3.45,0,0,0,1.783.5A3.569,3.569,0,0,0,6.691,20.136ZM22.88,16.5h0a4.556,4.556,0,0,1-4.442,4.1l-1.516,0A3.552,3.552,0,0,0,19.734,22a3.45,3.45,0,0,0,1.783-.5h0A3.826,3.826,0,0,0,22.88,16.5ZM8.551,5.6L11.7,11.277l6.721-.011a4.308,4.308,0,0,1,1.781.382l-0.019-.009L14.763,1.864A3.57,3.57,0,0,0,11.647,0,3.45,3.45,0,0,0,9.864.5h0A3.828,3.828,0,0,0,8.551,5.6Zm13.467,10.33h0A3.672,3.672,0,0,0,18.426,12.2l-6.287.01L7.98,19.681l10.457-.017A3.673,3.673,0,0,0,22.018,15.926Zm17.664-2.215V17.9a1.012,1.012,0,0,1-1.026,1.067,1.1,1.1,0,0,1-.985-1.067,4.362,4.362,0,0,1-3.036,1.067,5.137,5.137,0,0,1-5.19-5.252,5.265,5.265,0,0,1,5.19-5.4A5.149,5.149,0,0,1,39.681,13.711Zm-2.01,0A3.173,3.173,0,0,0,34.635,10.4a3.29,3.29,0,0,0-3.18,3.309,3.16,3.16,0,0,0,3.18,3.16A3.041,3.041,0,0,0,37.671,13.711ZM49.18,9.335v5.38a4.157,4.157,0,1,1-8.309,0V9.335a1.016,1.016,0,1,1,2.031,0v5.337a2.125,2.125,0,1,0,4.247,0V9.335A1.016,1.016,0,1,1,49.18,9.335Zm8.247,0A1.051,1.051,0,0,1,56.4,10.4H54.945v7.536a1.017,1.017,0,1,1-2.031,0V10.4H51.437a1.047,1.047,0,0,1-1.005-1.068,1.028,1.028,0,0,1,1.005-1.046h1.477V4.018a1.016,1.016,0,1,1,2.031,0v4.27H56.4A1.032,1.032,0,0,1,57.427,9.335Zm-0.041,4.291a5.153,5.153,0,1,1,10.3,0A5.153,5.153,0,1,1,57.387,13.626Zm2.031,0a3.121,3.121,0,1,0,3.118-3.245A3.2,3.2,0,0,0,59.418,13.626Zm23.86-.961a0.2,0.2,0,0,1,.02.107V17.96a1.05,1.05,0,0,1-1.026,1.067,1.033,1.033,0,0,1-1.005-1.067V12.58a2.093,2.093,0,1,0-4.185,0v5.38a1.033,1.033,0,0,1-1.005,1.067A1.05,1.05,0,0,1,75.05,17.96V12.58a2.084,2.084,0,1,0-4.165,0v5.38a1.017,1.017,0,1,1-2.031,0V12.58a4.2,4.2,0,0,1,4.124-4.27,4,4,0,0,1,3.1,1.473,4,4,0,0,1,3.1-1.473A4.2,4.2,0,0,1,83.3,12.58,0.107,0.107,0,0,1,83.277,12.665Zm11.489,1.046V17.9a1.012,1.012,0,0,1-1.026,1.067,1.1,1.1,0,0,1-.985-1.067,4.362,4.362,0,0,1-3.036,1.067,5.137,5.137,0,0,1-5.19-5.252,5.265,5.265,0,0,1,5.19-5.4A5.15,5.15,0,0,1,94.766,13.711Zm-2.011,0A3.173,3.173,0,0,0,89.719,10.4a3.29,3.29,0,0,0-3.18,3.309,3.16,3.16,0,0,0,3.18,3.16A3.041,3.041,0,0,0,92.756,13.711Zm8.987-4.377a1.051,1.051,0,0,1-1.026,1.068H99.259v7.536a1.017,1.017,0,1,1-2.031,0V10.4H95.751a1.047,1.047,0,0,1-1.005-1.068,1.028,1.028,0,0,1,1.005-1.046h1.477V4.018a1.016,1.016,0,1,1,2.031,0v4.27h1.457A1.032,1.032,0,0,1,101.742,9.335ZM112,13.626a1.032,1.032,0,0,1-1.026,1.046H103.9a3.14,3.14,0,0,0,2.954,2.2,3.909,3.909,0,0,0,2.3-.7,0.965,0.965,0,0,1,1.354.491,1.134,1.134,0,0,1-.492,1.409,4.874,4.874,0,0,1-3.16.918,5.261,5.261,0,0,1-5.149-5.359,5.247,5.247,0,0,1,5.149-5.359A5.151,5.151,0,0,1,112,13.626Zm-8.1-1.068h5.929a3.009,3.009,0,0,0-2.975-2.178A3.148,3.148,0,0,0,103.9,12.558Z"/>
</svg>
